<?xml version="1.0" standalone="no"?>
<!DOCTYPE svg PUBLIC "-//W3C//DTD SVG 20010904//EN"
 "http://www.w3.org/TR/2001/REC-SVG-20010904/DTD/svg10.dtd">
<svg version="1.0" xmlns="http://www.w3.org/2000/svg"
 width="152.000000pt" height="152.000000pt" viewBox="0 0 152.000000 152.000000"
 preserveAspectRatio="xMidYMid meet">
<metadata>
Created by potrace 1.14, written by Peter Selinger 2001-2017
</metadata>
<g transform="translate(0.000000,152.000000) scale(0.100000,-0.100000)"
fill="#000000" stroke="none">
<path d="M1037 1449 c7 -7 15 -10 18 -7 3 3 -2 9 -12 12 -14 6 -15 5 -6 -5z"/>
<path d="M290 1428 c0 -5 -5 -6 -10 -3 -6 3 -14 -5 -20 -19 -5 -14 -12 -26
-15 -26 -4 0 -4 4 0 9 3 5 1 12 -4 15 -13 8 -108 -80 -128 -118 -10 -19 -17
-57 -17 -98 -1 -65 0 -67 36 -98 l36 -31 -24 -61 c-14 -33 -30 -96 -37 -139
-6 -44 -15 -79 -19 -79 -4 0 -8 -5 -8 -11 0 -5 5 -7 10 -4 6 3 10 1 10 -4 0
-6 -7 -11 -15 -11 -17 0 -19 -18 -5 -40 8 -12 10 -10 11 10 0 14 7 -12 14 -56
7 -45 15 -86 19 -92 3 -6 -9 -12 -29 -14 -30 -3 -36 -1 -40 16 -2 12 -9 45
-16 75 -15 71 -7 205 20 310 26 100 22 128 -6 50 -43 -113 -55 -260 -32 -400
l12 -69 73 0 c62 0 72 -2 68 -15 -5 -12 -10 -13 -20 -5 -7 7 -25 10 -41 8 -25
-3 -28 -8 -31 -42 l-3 -38 40 4 c38 3 41 2 40 -22 0 -14 -3 -19 -6 -12 -2 6
-20 12 -39 12 -32 0 -34 -2 -34 -34 0 -46 -9 -66 -29 -66 -9 0 -24 -17 -35
-39 -18 -39 -18 -39 5 -72 30 -41 80 -88 95 -89 18 0 44 46 44 79 0 17 6 31
16 35 17 7 28 0 79 -48 148 -140 392 -216 600 -187 111 15 225 57 312 113 66
43 161 130 191 176 9 14 29 24 53 28 55 9 58 23 4 17 -24 -3 -52 -2 -62 2 -10
5 -21 8 -24 7 -4 -1 -14 6 -22 16 -18 21 -35 98 -19 88 6 -3 13 -2 17 4 3 5
-2 10 -12 11 -10 0 -13 3 -5 6 6 2 12 11 12 18 0 23 48 45 100 45 50 0 50 0
50 -32 l0 -33 -13 25 c-23 46 -83 35 -111 -19 -28 -54 13 -131 70 -131 17 0
23 7 26 31 3 22 0 33 -10 37 -9 3 -17 1 -19 -5 -2 -5 -10 -19 -18 -29 -13 -18
-15 -17 -29 17 -18 44 -4 86 31 95 36 10 56 -2 43 -25 -15 -29 -12 -41 8 -41
13 0 23 15 35 53 9 28 22 70 29 92 20 64 17 307 -6 380 -10 33 -19 70 -20 81
-1 16 -6 20 -18 15 -21 -8 -22 -10 -8 -46 40 -102 50 -315 20 -416 -9 -33 -13
-37 -45 -36 -19 1 -35 5 -35 9 0 5 -17 -3 -37 -17 -21 -14 -48 -29 -60 -35
-17 -7 -23 -19 -24 -42 l-2 -33 -6 33 c-3 18 -9 33 -13 32 -5 0 -13 0 -19 0
-5 0 -7 -6 -4 -12 4 -7 -7 3 -24 22 -52 60 -39 73 44 44 52 -17 84 -13 44 6
-20 9 -25 17 -22 38 4 21 2 24 -6 12 -9 -12 -11 -11 -11 8 0 15 6 22 20 22 11
0 20 -5 20 -11 0 -5 5 -7 11 -4 13 9 10 84 -6 110 -6 11 -10 32 -9 47 4 36
-27 63 -55 49 -35 -19 -47 -12 -71 40 -13 29 -31 54 -41 56 -11 3 -19 12 -19
19 0 13 -5 16 -40 18 -8 1 -15 8 -16 16 -2 30 -4 32 -20 19 -13 -10 -17 -10
-24 0 -4 8 -13 10 -20 6 -10 -6 -11 -1 -6 18 5 21 3 25 -9 21 -16 -6 -18 1
-17 49 0 16 -5 27 -13 27 -7 0 -15 9 -18 21 -5 18 -10 20 -39 14 -47 -10 -47
-11 -41 -52 4 -26 3 -34 -5 -29 -7 4 -12 2 -12 -5 0 -9 -3 -9 -14 0 -11 9 -19
9 -37 -1 -17 -10 -23 -10 -26 0 -3 6 -13 12 -23 12 -16 0 -17 -4 -10 -32 8
-28 7 -30 -3 -16 -7 9 -23 18 -35 20 -13 1 -21 8 -20 13 2 6 11 9 22 7 13 -1
16 2 12 14 -3 8 -6 19 -6 24 0 5 -12 5 -27 1 -18 -5 -34 -19 -44 -41 l-16 -33
-7 26 c-8 34 -26 35 -26 2 0 -31 -17 -33 -30 -2 -9 19 -10 18 -7 -10 3 -26 1
-30 -10 -22 -7 6 -21 9 -31 7 -11 -3 -23 2 -30 13 -16 26 -15 45 4 64 13 12
14 19 4 30 -7 8 -20 15 -29 15 -14 0 -14 2 -1 10 9 6 11 10 3 10 -7 0 -10 7
-7 15 4 8 10 13 14 10 4 -3 13 2 20 10 20 24 59 19 72 -10 9 -20 8 -28 -5 -43
-10 -10 -17 -29 -17 -42 l0 -23 23 21 c12 11 28 36 34 54 12 31 11 32 -4 13
-14 -18 -15 -18 -9 -2 3 10 6 23 6 28 0 6 5 7 12 3 8 -5 9 -2 3 12 -4 10 -9
30 -10 44 -1 17 -11 30 -31 39 -27 13 -40 25 -47 44 -1 5 -10 5 -20 2 -20 -8
-23 -35 -4 -35 8 0 8 -3 1 -8 -6 -4 -13 -15 -17 -24 -8 -22 -16 -22 -46 1
l-23 18 29 -2 c33 -2 43 25 17 46 -8 6 -14 8 -14 5 0 -4 -9 -2 -20 4 -14 7
-20 7 -20 0 0 -5 -7 -10 -15 -10 -8 0 -15 5 -15 11 0 5 -5 7 -10 4 -6 -4 -8
-11 -5 -16 4 -5 -1 -9 -9 -9 -20 0 -20 19 0 58 16 33 31 45 20 16 -3 -8 -2
-12 4 -9 19 12 10 33 -15 33 -14 0 -25 -5 -25 -10z m101 -231 c-6 -6 -11 -17
-11 -24 0 -19 -68 -85 -80 -78 -6 3 -10 11 -10 18 0 16 93 105 103 100 5 -3 4
-10 -2 -16z m-31 8 c0 -2 -10 -9 -22 -15 -22 -11 -22 -10 -4 4 21 17 26 19 26
11z m535 -75 c3 -5 1 -10 -4 -10 -6 0 -11 5 -11 10 0 6 2 10 4 10 3 0 8 -4 11
-10z m-27 -35 c-3 -3 -9 2 -12 12 -6 14 -5 15 5 6 7 -7 10 -15 7 -18z m-457
-88 c-8 -8 -11 -1 -11 24 0 46 14 60 18 19 2 -18 -1 -37 -7 -43z m-84 33 c7
-8 13 -26 13 -40 0 -14 7 -34 15 -44 29 -38 19 -72 -30 -106 -32 -22 -42 -35
-38 -47 4 -10 2 -14 -4 -10 -7 4 -15 -5 -21 -20 l-10 -28 -7 28 c-8 32 20 97
42 97 7 0 13 5 13 10 0 14 -12 12 -39 -7 -14 -9 -21 -11 -17 -5 4 7 3 12 -3
12 -13 0 -25 -45 -16 -59 3 -6 -1 -21 -10 -33 -15 -23 -15 -22 -9 10 8 38 -15
46 -31 10 -6 -13 -20 -24 -32 -26 -25 -4 -31 13 -9 21 8 3 22 21 32 39 9 18
25 43 36 55 l21 22 -29 7 c-30 8 -54 26 -54 42 0 20 37 49 71 56 21 3 42 12
48 20 14 17 53 15 68 -4z m393 -42 c0 -11 -43 7 -48 20 -2 7 5 7 22 -1 14 -7
26 -15 26 -19z m196 8 c2 -12 -2 -16 -13 -12 -11 5 -13 2 -9 -9 3 -9 2 -14 -3
-11 -5 3 -28 -5 -52 -18 -49 -27 -132 -47 -113 -27 6 6 21 13 34 16 29 6 31 7
34 41 3 27 6 29 44 26 22 -2 43 2 47 8 10 15 28 7 31 -14z m553 -31 c0 -5 -4
-3 -9 5 -5 8 -9 22 -9 30 0 16 17 -16 18 -35z m-688 22 c-1 -12 -15 -9 -19 4
-3 6 1 10 8 8 6 -3 11 -8 11 -12z m-95 -20 c4 -4 -2 -7 -14 -7 -11 0 -23 4
-26 8 -6 10 30 9 40 -1z m294 3 c0 -5 -5 -10 -11 -10 -5 0 -7 5 -4 10 3 6 8
10 11 10 2 0 4 -4 4 -10z m-35 -19 c0 -6 7 -16 15 -21 8 -5 11 -10 6 -10 -13
0 -46 31 -46 42 0 5 6 8 13 6 6 -3 12 -10 12 -17z m-510 -41 c14 0 13 -4 -4
-29 -25 -34 -27 -56 -6 -47 22 8 18 -12 -5 -24 -16 -9 -20 -21 -20 -63 0 -34
-3 -47 -9 -38 -5 8 -7 19 -5 26 3 6 6 47 8 91 7 143 6 132 16 107 5 -13 17
-23 25 -23z m1042 8 c-3 -7 -5 -2 -5 12 0 14 2 19 5 13 2 -7 2 -19 0 -25z
m-423 7 c-4 -8 -8 -15 -10 -15 -2 0 -4 7 -4 15 0 8 4 15 10 15 5 0 7 -7 4 -15z
m200 -131 c10 -25 1 -27 -19 -4 -15 17 -16 20 -3 20 9 0 19 -7 22 -16z m-237
-46 c-3 -8 -6 -5 -6 6 -1 11 2 17 5 13 3 -3 4 -12 1 -19z m62 -32 c-9 -8 -10
-7 -5 7 3 10 7 26 7 35 1 9 4 6 6 -7 3 -13 -1 -28 -8 -35z m56 44 c3 -5 1 -10
-4 -10 -6 0 -11 5 -11 10 0 6 2 10 4 10 3 0 8 -4 11 -10z m100 -10 c-3 -5 7
-22 22 -37 19 -18 22 -24 10 -20 -10 4 -25 7 -33 7 -9 0 -12 5 -9 10 3 6 1 10
-5 10 -6 0 -8 5 -5 10 3 6 1 10 -5 10 -6 0 -8 5 -5 10 3 6 13 10 21 10 8 0 12
-4 9 -10z m-185 -51 c0 -5 -8 -9 -17 -9 -16 -1 -16 -2 1 -15 24 -18 7 -20 -28
-4 -26 12 -27 32 -1 23 8 -4 18 1 21 10 6 16 24 13 24 -5z m-720 -10 c0 -9
-31 -21 -37 -15 -3 3 -3 9 1 14 6 10 36 12 36 1z m947 -31 c-3 -8 -6 -5 -6 6
-1 11 2 17 5 13 3 -3 4 -12 1 -19z m-70 -24 c-3 -3 -12 -4 -19 -1 -8 3 -5 6 6
6 11 1 17 -2 13 -5z m-99 -80 c23 -5 34 -15 44 -39 14 -35 82 -115 98 -115 5
0 10 -12 10 -27 -1 -27 -3 -25 -56 32 l-55 60 3 -58 c3 -48 0 -57 -14 -57 -13
0 -15 5 -9 28 4 15 7 45 7 67 -1 30 -6 42 -23 50 -31 16 -73 49 -73 57 0 10
27 10 68 2z m-150 -59 c17 -6 15 -50 -3 -65 -14 -12 -12 -17 17 -47 23 -24 28
-33 15 -33 -9 0 -29 16 -44 35 -35 44 -46 44 -41 0 3 -27 0 -35 -12 -35 -13 0
-16 14 -17 78 l0 79 36 -4 c20 -2 42 -5 49 -8z m-713 -62 l0 -68 32 1 c18 1
30 -2 27 -7 -3 -5 -28 -9 -55 -9 -48 0 -49 1 -38 21 6 13 9 44 6 75 -4 46 -3
54 11 54 14 0 17 -11 17 -67z m215 49 c33 -26 30 -80 -5 -109 -19 -17 -39 -23
-74 -23 l-48 0 8 48 c5 26 7 59 3 75 -6 27 -5 27 44 27 33 0 57 -6 72 -18z
m103 11 c-29 -4 -33 -8 -33 -34 0 -26 3 -29 25 -25 14 3 25 0 25 -5 0 -5 -11
-9 -25 -9 -21 0 -25 -5 -25 -31 0 -31 1 -31 35 -26 21 3 33 2 30 -4 -4 -5 -32
-9 -63 -8 -31 0 -51 3 -44 6 8 3 12 28 12 74 l0 69 48 -2 c36 -1 39 -2 15 -5z
m137 -38 c52 -65 64 -66 58 -5 -3 33 -1 50 6 50 7 0 10 -25 7 -77 l-3 -78 -54
59 c-30 33 -56 57 -58 55 -2 -2 0 -28 3 -56 6 -44 5 -53 -8 -53 -13 0 -15 11
-13 66 3 48 0 69 -10 75 -9 6 -5 9 12 8 17 0 36 -14 60 -44z m372 33 c-16 -16
-15 -110 1 -127 10 -10 8 -12 -8 -9 -17 3 -20 12 -21 60 -1 32 -4 64 -7 73 -5
11 0 15 20 15 21 0 24 -3 15 -12z m-947 -8 c-3 -5 -11 -10 -16 -10 -6 0 -7 5
-4 10 3 6 11 10 16 10 6 0 7 -4 4 -10z m58 -138 c-5 -19 -12 -22 -54 -22 -27
0 -49 3 -49 8 0 4 19 7 42 7 28 0 45 6 52 17 13 22 17 18 9 -10z m1154 -27 c1
-1 -9 -13 -23 -28 -14 -15 -22 -32 -18 -39 4 -6 3 -8 -3 -5 -10 6 -49 -28 -55
-48 -2 -5 -9 -9 -15 -7 -7 2 -10 -3 -7 -11 6 -18 -60 -62 -77 -51 -8 4 -9 3
-5 -4 4 -7 -18 -23 -58 -42 -68 -31 -100 -40 -56 -15 30 17 21 20 -14 4 -14
-7 -23 -16 -19 -22 3 -5 -3 -6 -15 -3 -12 4 -38 2 -59 -3 -33 -9 -160 -24
-188 -23 -38 3 -170 34 -220 52 -85 33 -271 152 -254 163 2 2 16 8 30 14 24
10 32 7 80 -29 81 -61 128 -85 199 -103 60 -15 75 -13 70 10 -2 13 31 36 41
29 9 -5 6 -11 -6 -21 -11 -7 -15 -13 -9 -13 5 0 3 -4 -5 -9 -21 -14 89 -25
168 -17 80 7 190 38 237 66 20 11 41 20 47 20 16 0 177 158 177 173 0 6 12 0
28 -14 15 -13 28 -24 29 -24z m-768 -159 c14 -8 32 -11 40 -8 9 3 12 1 7 -6
-9 -15 -43 -16 -51 -2 -3 6 -15 10 -26 10 -11 0 -17 5 -14 10 8 13 15 12 44
-4z m131 -37 c0 -11 -4 -18 -10 -14 -5 3 -7 12 -3 20 7 21 13 19 13 -6z"/>
<path d="M316 939 c3 -5 12 -9 21 -9 19 0 9 13 -12 16 -8 1 -13 -2 -9 -7z"/>
<path d="M815 970 c-3 -5 -1 -10 4 -10 6 0 11 5 11 10 0 6 -2 10 -4 10 -3 0
-8 -4 -11 -10z"/>
<path d="M900 470 c0 -27 3 -31 23 -28 16 2 22 10 22 28 0 18 -6 26 -22 28
-20 3 -23 -1 -23 -28z"/>
<path d="M372 438 c3 -54 6 -63 23 -66 31 -4 56 20 57 56 1 39 -26 72 -59 72
-23 0 -24 -2 -21 -62z"/>
<path d="M1174 164 c-18 -14 -18 -14 6 -3 31 14 36 19 24 19 -6 0 -19 -7 -30
-16z"/>
<path d="M383 1394 c-7 -7 -9 -15 -4 -19 11 -6 41 4 41 15 0 15 -25 18 -37 4z"/>
<path d="M630 1266 c0 -8 6 -21 13 -28 7 -7 12 -20 12 -28 -2 -29 25 -57 53
-56 18 1 26 6 24 15 -2 8 3 18 10 23 8 5 4 6 -12 3 -30 -7 -56 16 -62 55 -3
27 -38 42 -38 16z"/>
<path d="M760 1239 c0 -5 5 -9 11 -9 8 0 7 -6 -2 -17 -9 -11 -10 -14 -2 -9 7
4 17 15 22 24 7 14 5 18 -10 19 -10 1 -19 -2 -19 -8z"/>
<path d="M814 1220 c0 -11 4 -20 8 -20 4 0 8 5 8 10 0 6 5 10 11 10 5 0 8 -4
4 -9 -9 -15 13 -23 32 -12 16 8 13 12 -19 25 -46 20 -44 20 -44 -4z"/>
<path d="M768 1183 c-9 -2 -20 -13 -23 -24 -4 -10 -11 -19 -16 -19 -5 0 -9 -5
-9 -11 0 -5 5 -7 10 -4 6 3 10 1 10 -4 0 -6 -5 -11 -11 -11 -8 0 -8 -4 1 -14
14 -18 37 -11 44 12 7 23 17 82 14 81 -2 -1 -11 -3 -20 -6z"/>
<path d="M950 1180 c0 -6 7 -10 15 -10 8 0 15 2 15 4 0 2 -7 6 -15 10 -8 3
-15 1 -15 -4z"/>
<path d="M1298 1173 c7 -3 16 -2 19 1 4 3 -2 6 -13 5 -11 0 -14 -3 -6 -6z"/>
<path d="M1365 1160 c-3 -5 1 -10 9 -10 9 0 16 5 16 10 0 6 -4 10 -9 10 -6 0
-13 -4 -16 -10z"/>
<path d="M1035 1150 c3 -5 -9 -7 -27 -6 -18 2 -25 1 -15 -1 9 -2 17 -9 17 -14
0 -14 42 -7 47 7 2 6 -3 14 -12 18 -9 3 -13 2 -10 -4z"/>
<path d="M1230 1120 c-13 -9 -13 -10 0 -10 13 0 13 -1 0 -10 -13 -9 -13 -10 0
-10 18 -1 70 -39 53 -40 -18 0 -16 -30 2 -30 8 0 15 -4 15 -8 0 -4 14 -16 31
-26 25 -15 33 -16 39 -5 6 8 2 18 -11 27 -10 7 -19 21 -18 30 0 14 3 13 16 -5
8 -13 20 -23 26 -23 6 0 7 3 4 7 -4 3 3 11 15 17 12 6 22 19 24 29 2 14 -1 16
-11 7 -11 -9 -18 -7 -31 9 -10 11 -22 17 -28 14 -6 -4 -5 1 2 10 13 15 11 15
-26 -1 -22 -9 -38 -20 -36 -24 2 -3 -5 -4 -16 -1 -29 8 -24 20 11 27 17 3 28
10 24 16 -8 13 -65 13 -85 0z"/>
<path d="M978 1113 c7 -3 16 -2 19 1 4 3 -2 6 -13 5 -11 0 -14 -3 -6 -6z"/>
<path d="M1038 1099 c-36 -18 -52 -35 -26 -27 6 2 20 -4 30 -14 17 -17 20 -17
35 -2 12 12 13 18 4 23 -10 6 -9 12 4 25 23 22 0 20 -47 -5z"/>
<path d="M1460 1080 c15 -11 26 -15 29 -8 4 12 -17 28 -39 28 -10 0 -7 -7 10
-20z"/>
<path d="M1110 1065 c-19 -22 15 -93 47 -101 26 -7 55 20 46 43 -7 19 27 16
49 -4 10 -9 18 -11 18 -6 0 6 -7 16 -16 24 -8 7 -13 21 -11 31 8 28 -19 22
-55 -12 -40 -39 -69 -40 -62 -3 3 15 7 30 10 35 9 14 -13 8 -26 -7z"/>
<path d="M1286 996 c3 -9 13 -16 22 -16 8 0 13 1 11 3 -2 1 -12 9 -22 16 -15
12 -17 12 -11 -3z"/>
<path d="M1392 965 c-1 -20 -4 -41 -8 -48 -5 -8 -4 -9 4 -2 13 12 24 85 13 85
-4 0 -8 -16 -9 -35z"/>
<path d="M1220 940 c0 -5 -7 -7 -15 -4 -9 4 -18 -1 -22 -12 -4 -10 -2 -19 5
-22 7 -2 12 -10 12 -18 0 -8 -6 -11 -15 -8 -11 5 -13 2 -9 -9 6 -18 42 -19 63
-3 11 8 13 8 7 -2 -9 -14 19 -11 82 9 45 14 69 33 30 24 -20 -5 -29 -2 -37 13
-15 29 -101 56 -101 32z"/>
<path d="M1413 810 c0 -25 2 -35 4 -22 2 12 2 32 0 45 -2 12 -4 2 -4 -23z"/>
<path d="M34 514 c3 -9 7 -50 8 -92 l1 -77 6 65 c7 76 3 120 -11 120 -6 0 -7
-7 -4 -16z"/>
<path d="M1454 406 c-3 -8 -1 -23 5 -33 9 -15 10 -13 11 15 0 34 -7 42 -16 18z"/>
</g>
</svg>
