<?xml version="1.0" standalone="no"?>
<!DOCTYPE svg PUBLIC "-//W3C//DTD SVG 20010904//EN"
 "http://www.w3.org/TR/2001/REC-SVG-20010904/DTD/svg10.dtd">
<svg version="1.0" xmlns="http://www.w3.org/2000/svg"
 width="613.000000pt" height="613.000000pt" viewBox="0 0 613.000000 613.000000"
 preserveAspectRatio="xMidYMid meet">
<metadata>
Created by potrace 1.14, written by Peter Selinger 2001-2017
</metadata>
<g transform="translate(0.000000,613.000000) scale(0.100000,-0.100000)"
fill="#000000" stroke="none">
<path d="M0 3065 l0 -3065 3065 0 3065 0 0 3065 0 3065 -3065 0 -3065 0 0
-3065z m3055 810 c103 -27 166 -82 217 -191 81 -173 -7 -386 -188 -453 -49
-19 -74 -22 -149 -19 -106 4 -157 28 -222 101 -110 125 -122 292 -31 432 35
55 57 73 135 111 78 38 145 44 238 19z m-1257 -10 c43 -8 59 -37 67 -120 8
-100 -3 -111 -57 -59 -50 49 -77 64 -112 64 -22 0 -26 -5 -27 -27 -4 -196 1
-413 11 -438 25 -64 25 -65 -43 -66 -34 -1 -92 -3 -129 -4 -89 -3 -95 2 -73
57 14 34 18 76 20 198 2 85 1 184 -2 219 l-6 63 -40 -5 c-30 -4 -51 -17 -86
-51 -64 -63 -75 -61 -68 12 4 31 6 69 7 83 0 15 9 37 19 50 18 22 29 24 133
29 135 6 340 3 386 -5z m579 -11 c46 -17 109 -80 119 -119 14 -57 -1 -139 -35
-196 -32 -51 -33 -56 -22 -97 12 -48 50 -112 91 -157 58 -64 56 -66 -103 -63
l-142 3 -1 30 c-3 66 -73 213 -94 200 -15 -10 -12 -132 5 -172 29 -69 30 -68
-119 -69 -130 -1 -134 0 -132 20 2 12 8 31 15 44 8 16 12 91 11 257 0 194 -3
242 -17 277 -14 36 -15 42 -1 52 24 18 372 10 425 -10z m1255 17 c15 -1 17
-10 16 -53 0 -36 11 -85 38 -165 22 -62 42 -113 45 -113 15 0 81 213 84 267
l2 58 49 6 c65 8 152 0 150 -15 -1 -6 -13 -27 -28 -46 -39 -53 -55 -92 -160
-405 -49 -146 -70 -180 -120 -190 -16 -4 -42 -2 -57 5 -35 14 -56 60 -144 311
-66 189 -94 254 -128 298 -11 13 -19 27 -19 32 0 13 85 16 272 10z m918 -10
c46 -9 60 -38 60 -124 0 -80 -18 -113 -40 -72 -7 13 -32 38 -56 55 -39 27 -50
31 -101 28 l-58 -3 0 -62 c0 -34 3 -64 7 -68 10 -10 45 4 78 32 17 14 34 22
38 19 11 -12 15 -217 4 -228 -10 -10 -37 -1 -89 32 -29 19 -35 10 -41 -55 -5
-65 7 -85 52 -85 72 0 107 13 155 56 67 60 74 58 67 -18 -3 -35 -6 -72 -7 -83
0 -25 -17 -45 -49 -57 -32 -12 -448 -14 -461 -1 -5 5 -1 25 11 49 18 36 20 63
22 264 1 191 -1 231 -15 264 -22 51 -21 64 6 69 31 6 375 -4 417 -12z m620
-16 c55 -28 83 -62 99 -120 17 -62 13 -96 -19 -155 -17 -30 -35 -65 -41 -77
-10 -18 -6 -34 25 -100 21 -43 50 -91 65 -108 59 -63 56 -65 -92 -65 -73 0
-137 4 -143 8 -7 4 -12 25 -12 47 -1 41 -63 185 -81 185 -9 0 -21 -57 -21
-106 0 -16 9 -49 20 -71 31 -65 27 -68 -120 -69 -71 0 -127 3 -124 8 3 4 0 8
-5 8 -7 0 -4 17 7 43 14 36 17 75 16 272 0 203 -2 234 -19 269 -28 59 -20 61
205 58 181 -3 195 -4 240 -27z m776 9 c27 -13 32 -22 38 -61 3 -25 6 -68 6
-94 0 -58 -15 -64 -48 -19 -26 35 -90 70 -127 70 l-27 0 4 -227 c3 -164 8
-237 18 -260 8 -18 12 -34 9 -37 -8 -9 -254 -15 -268 -7 -10 7 -9 15 6 42 16
30 18 63 21 262 l3 227 -26 0 c-41 0 -91 -28 -120 -66 -42 -55 -55 -46 -55 41
0 85 18 132 53 140 31 7 189 10 346 7 94 -2 144 -7 167 -18z m-5486 1 c0 -9
-7 -29 -15 -46 -23 -43 -23 -486 0 -531 23 -48 19 -55 -32 -61 -55 -6 -213 -1
-221 8 -3 3 2 27 11 53 23 64 25 482 2 522 -8 14 -14 35 -15 48 0 22 2 22 135
22 115 0 135 -2 135 -15z m346 2 c31 -18 63 -60 127 -167 88 -150 86 -148 88
-60 2 118 -1 142 -21 184 -11 22 -17 43 -14 48 3 4 50 8 105 8 109 0 116 -5
82 -57 -16 -24 -19 -62 -23 -296 -6 -312 -1 -299 -107 -296 -34 1 -66 5 -71 8
-11 7 -92 128 -165 244 -26 42 -52 77 -58 77 -20 0 -6 -238 16 -282 10 -21 17
-40 14 -42 -8 -8 -197 -11 -204 -4 -4 4 3 27 15 52 20 43 21 55 18 283 -3 202
-6 243 -20 269 -10 17 -14 34 -11 38 12 11 207 6 229 -7z m518 -781 c95 -25
155 -76 205 -175 32 -62 35 -77 35 -161 0 -92 -29 -162 -95 -231 -71 -74 -124
-94 -249 -94 -121 0 -159 14 -232 88 -106 106 -132 258 -68 392 29 61 101 145
124 145 6 0 31 11 56 24 54 29 141 33 224 12z m2036 -6 c26 -14 103 -13 118 2
25 25 40 -13 46 -118 5 -86 4 -103 -10 -115 -14 -11 -18 -10 -27 6 -43 77
-200 141 -257 105 -27 -17 2 -43 115 -100 59 -30 125 -70 146 -88 94 -80 92
-194 -6 -288 -47 -45 -61 -53 -114 -62 -59 -11 -85 -8 -211 17 -19 4 -50 3
-68 -3 -23 -7 -36 -6 -44 2 -17 17 -24 222 -8 222 7 0 32 -18 57 -40 47 -41
135 -80 181 -80 45 0 72 11 72 29 0 27 -38 56 -120 91 -141 61 -195 110 -211
191 -10 52 -9 60 15 111 29 60 73 101 133 122 42 14 163 12 193 -4z m-1433 -7
c4 -9 -1 -29 -10 -45 -24 -43 -25 -358 -1 -418 26 -64 87 -87 145 -53 48 28
54 60 54 263 0 167 -2 188 -20 218 -17 28 -18 34 -5 42 15 9 188 5 198 -5 3
-3 -4 -23 -15 -44 -18 -34 -21 -58 -22 -219 -2 -204 -15 -259 -73 -320 -52
-53 -101 -74 -194 -80 -73 -4 -87 -2 -137 22 -32 15 -68 42 -86 65 -57 71 -63
99 -67 297 -3 127 -9 195 -19 224 -8 23 -15 46 -15 51 0 11 41 16 158 18 87 1
104 -1 109 -16z m969 2 c49 -9 62 -31 69 -121 8 -94 -4 -115 -39 -72 -32 39
-95 78 -127 78 l-29 0 -1 -167 c-2 -210 0 -248 13 -298 6 -22 12 -46 14 -52 1
-9 -15 -13 -54 -14 -176 -5 -203 -5 -214 2 -8 5 -5 21 10 57 20 47 22 68 22
263 l0 212 -46 -6 c-38 -4 -54 -13 -95 -53 -62 -61 -71 -53 -63 50 10 115 16
120 156 126 132 6 339 3 384 -5z m1568 -20 c82 -39 154 -128 172 -216 10 -46
7 -168 -4 -183 -5 -6 -15 -27 -21 -47 -17 -54 -87 -124 -156 -156 -59 -27 -64
-27 -242 -28 -100 0 -184 3 -188 6 -3 4 4 25 15 47 20 38 21 55 21 282 -1 199
-4 246 -17 271 -30 60 -24 62 181 55 171 -5 189 -7 239 -31z m692 19 c23 -3
49 -13 58 -22 21 -25 31 -156 13 -182 -13 -19 -14 -18 -36 10 -38 52 -93 80
-156 80 l-55 0 0 -64 c0 -36 5 -68 11 -71 6 -4 32 6 59 23 40 25 50 28 54 15
9 -22 7 -223 -2 -223 -4 0 -29 11 -55 25 -26 14 -52 23 -57 20 -6 -3 -10 -35
-10 -70 0 -61 1 -65 26 -71 63 -16 183 31 212 83 6 10 16 14 27 9 15 -5 17
-14 11 -59 -13 -101 -23 -125 -59 -136 -27 -9 -282 -16 -424 -12 -49 1 -51 7
-22 68 19 40 20 56 17 270 -3 187 -7 235 -21 265 -21 47 -21 46 6 51 26 5 345
-2 403 -9z m-1259 -21 c-3 -16 -11 -49 -17 -76 -17 -67 -8 -460 10 -504 8 -18
11 -36 7 -40 -10 -9 -253 -10 -262 -1 -4 4 1 28 11 55 16 41 18 78 18 273 -1
193 -3 230 -18 258 -30 58 -22 62 125 62 l131 0 -5 -27z"/>
<path d="M2862 3832 c-122 -44 -198 -158 -194 -291 2 -104 53 -189 153 -257
29 -20 54 -26 122 -31 80 -5 90 -4 142 21 223 110 233 418 17 541 -63 37 -164
44 -240 17z m196 -78 c47 -54 66 -128 60 -234 -9 -150 -72 -236 -166 -227 -54
6 -92 40 -123 111 -33 71 -33 220 -2 286 42 87 78 113 148 107 42 -4 54 -10
83 -43z"/>
<path d="M2913 3738 c-36 -38 -47 -63 -61 -139 -23 -122 41 -269 116 -269 27
0 77 59 93 110 17 54 17 159 1 217 -14 49 -70 113 -99 113 -10 0 -33 -15 -50
-32z"/>
<path d="M1351 3830 c-37 -9 -51 -24 -51 -57 l0 -22 45 20 c31 14 62 19 98 17
l52 -3 0 -263 c0 -298 -7 -277 86 -270 l44 3 -3 261 c-3 182 -1 264 7 268 24
15 109 7 150 -13 l41 -21 0 29 c0 16 -6 34 -14 40 -17 14 -401 23 -455 11z"/>
<path d="M2035 3832 c-19 -3 -20 -10 -19 -290 l1 -287 59 4 c33 2 62 5 67 8 4
2 4 28 1 56 -7 68 -8 84 -6 135 2 41 3 42 38 42 19 0 43 -4 52 -9 17 -9 79
-134 98 -196 9 -29 11 -30 82 -33 39 -2 72 0 72 3 0 9 -22 49 -30 55 -10 7
-48 85 -66 134 -14 39 -14 40 28 100 38 54 43 67 43 118 0 48 -5 62 -31 95
-48 59 -68 65 -227 66 -78 1 -151 1 -162 -1z m242 -49 c40 -16 58 -136 28
-194 -9 -16 -27 -34 -41 -39 -33 -13 -111 -13 -119 0 -3 5 -6 58 -6 117 0 127
7 139 80 128 24 -4 50 -9 58 -12z"/>
<path d="M2196 3744 c-19 -18 -22 -114 -6 -145 25 -46 79 -6 87 65 5 38 2 48
-20 70 -30 30 -40 32 -61 10z"/>
<path d="M3472 3831 l-33 -6 21 -40 c12 -22 50 -125 87 -230 80 -233 110 -299
139 -303 22 -3 64 42 64 68 0 7 6 26 14 43 8 18 39 106 70 197 31 91 68 189
81 218 l25 52 -34 0 c-35 0 -46 -13 -46 -54 0 -32 -98 -318 -115 -336 -13 -12
-17 -12 -29 0 -17 19 -116 321 -116 355 0 14 -6 27 -12 30 -30 9 -85 12 -116
6z"/>
<path d="M4317 3830 l-129 -5 -1 -277 -2 -278 27 -9 c16 -6 97 -9 181 -8 168
2 187 8 187 57 l0 28 -47 -18 c-27 -9 -80 -20 -119 -24 -100 -10 -106 -3 -102
123 l3 96 30 -1 c17 -1 46 -3 65 -5 34 -4 35 -4 35 36 0 35 -3 39 -20 35 -11
-2 -40 -4 -65 -5 l-45 0 -3 99 c-2 58 1 103 7 109 25 25 145 15 224 -18 14 -6
17 -2 17 24 0 24 -5 32 -22 35 -45 10 -95 11 -221 6z"/>
<path d="M4811 3830 c-21 -5 -21 -9 -23 -283 0 -153 3 -282 8 -286 5 -4 35 -5
67 -3 l58 4 -3 116 -3 117 32 3 c47 5 67 -10 98 -75 29 -59 35 -75 51 -128 9
-29 11 -30 83 -33 72 -3 73 -3 66 20 -4 13 -15 32 -24 43 -23 27 -71 137 -71
163 0 11 11 33 24 49 44 53 59 93 54 149 -6 65 -42 117 -94 134 -36 12 -283
20 -323 10z m210 -40 c45 -13 68 -46 75 -108 6 -56 -17 -110 -56 -129 -32 -16
-102 -17 -118 -1 -8 8 -12 48 -12 114 0 95 2 104 22 118 26 19 40 19 89 6z"/>
<path d="M4970 3750 c-18 -11 -20 -144 -2 -162 17 -17 57 -1 70 27 35 77 -12
171 -68 135z"/>
<path d="M5495 3833 c-64 -12 -65 -13 -65 -43 0 -35 -4 -34 50 -15 23 8 64 15
91 15 59 0 53 33 53 -290 l1 -245 44 -3 c84 -6 88 -2 83 75 -8 103 -10 299 -4
385 l5 76 33 4 c31 4 95 -9 137 -27 13 -6 17 -2 17 18 0 44 -16 48 -227 51
-109 2 -207 1 -218 -1z"/>
<path d="M265 3546 c0 -157 3 -287 6 -290 3 -4 31 -4 61 0 l55 6 1 284 0 284
-62 0 -61 0 0 -284z"/>
<path d="M654 3583 c0 -137 -3 -265 -7 -285 -8 -38 -8 -38 25 -38 l33 0 -3
205 c-4 201 -3 205 17 205 23 0 44 -29 162 -225 102 -170 115 -185 169 -185
33 0 42 4 49 23 5 13 11 141 12 285 l4 262 -34 0 c-28 0 -32 -3 -25 -17 4 -10
9 -94 12 -186 6 -245 -1 -245 -149 -1 -46 76 -98 153 -115 171 -29 30 -36 33
-91 33 l-60 0 1 -247z"/>
<path d="M1138 3037 c-66 -19 -111 -53 -151 -114 -101 -154 -58 -347 99 -439
59 -34 170 -44 241 -20 129 43 215 192 192 335 -28 178 -203 288 -381 238z
m181 -79 c93 -102 87 -345 -10 -433 -81 -73 -171 -34 -218 95 -48 132 -18 293
66 360 23 18 37 21 80 17 43 -4 57 -11 82 -39z"/>
<path d="M1170 2933 c-40 -49 -54 -100 -54 -193 0 -55 6 -88 22 -123 41 -92
93 -110 147 -52 75 79 72 292 -5 375 -39 42 -71 40 -110 -7z"/>
<path d="M3200 3039 c-131 -40 -183 -178 -99 -266 32 -33 177 -113 206 -113
21 0 93 -76 93 -98 0 -11 -14 -32 -31 -46 -24 -20 -41 -26 -80 -26 -48 0 -164
32 -184 51 -18 18 -26 8 -23 -28 3 -35 5 -38 30 -35 15 2 62 -6 103 -17 67
-19 84 -20 140 -10 56 10 69 16 104 54 49 53 68 113 50 159 -21 52 -57 82
-164 135 -138 68 -167 93 -163 140 4 49 34 63 118 58 57 -3 92 -15 173 -55 5
-2 7 13 5 34 l-3 39 -67 7 c-37 3 -72 9 -77 13 -20 12 -96 14 -131 4z"/>
<path d="M2163 3031 c-5 -3 -6 -55 -1 -116 13 -200 -1 -325 -44 -375 -55 -64
-114 -76 -179 -35 -70 45 -80 84 -81 323 l-1 202 -61 0 -61 0 1 -193 c0 -105
4 -208 8 -227 13 -55 56 -117 100 -140 88 -47 230 -33 292 28 57 56 67 101 70
287 2 94 6 186 9 206 4 33 2 37 -19 41 -14 3 -29 2 -33 -1z"/>
<path d="M2452 3030 c-41 -9 -40 -9 -48 -48 l-6 -32 46 21 c32 14 62 19 99 17
l52 -3 0 -260 c0 -162 4 -263 10 -267 18 -13 112 -9 124 5 6 8 8 17 4 20 -9
10 -14 480 -4 495 13 21 102 17 150 -7 l41 -21 0 29 c0 16 -6 34 -14 40 -16
13 -402 23 -454 11z"/>
<path d="M4191 3030 l-85 -5 -1 -282 c0 -247 2 -283 15 -284 8 0 69 -1 135 -2
111 0 125 2 183 28 195 88 218 381 39 500 -63 42 -140 54 -286 45z m179 -44
c26 -11 69 -81 80 -132 24 -105 9 -227 -38 -306 -28 -49 -114 -74 -163 -48
-18 10 -19 23 -19 236 0 136 4 233 10 245 9 16 19 18 63 15 29 -2 59 -7 67
-10z"/>
<path d="M4275 2888 c-3 -35 -5 -126 -3 -203 l3 -140 33 -3 c41 -4 58 9 85 67
18 38 22 64 22 146 0 89 -3 105 -24 140 -31 49 -38 55 -78 55 -31 0 -31 0 -38
-62z"/>
<path d="M4945 3030 l-130 -5 -3 -235 c-1 -129 -3 -253 -3 -274 0 -21 5 -44
11 -50 15 -15 355 -15 369 -1 6 6 13 25 17 42 l6 32 -53 -19 c-30 -10 -85 -21
-122 -24 -95 -7 -105 4 -105 117 -1 105 8 117 74 99 63 -17 64 -16 64 28 l0
41 -64 -7 c-64 -7 -65 -6 -72 20 -10 42 0 186 14 195 21 13 154 4 194 -13 21
-9 40 -16 43 -16 11 0 4 49 -7 57 -23 14 -101 18 -233 13z"/>
<path d="M3706 2744 c0 -181 4 -289 10 -291 6 -2 34 0 63 4 l52 8 0 280 0 280
-63 3 -63 3 1 -287z"/>
</g>
</svg>
