<!DOCTYPE svg PUBLIC "-//W3C//DTD SVG 1.1//EN" "http://www.w3.org/Graphics/SVG/1.1/DTD/svg11.dtd"[]>
<svg version="1.1" xmlns="http://www.w3.org/2000/svg" xmlns:xlink="http://www.w3.org/1999/xlink" preserveAspectRatio="xMidYMid meet" viewBox="0 0 640 640" width="640" height="640">
  <defs>
    <path d="M279.64 547.17L275.37 559.09L270.5 569.38C268.95 571.91 267.98 573.49 267.6 574.12C265.89 576.9 263.96 579.54 261.84 582.01C261.38 582.53 262.91 580.77 262.37 581.38C260.52 583.54 258.44 585.49 256.17 587.21C255.86 587.44 255.1 588.02 253.88 588.95L245.45 593.75C243.58 594.81 242.42 595.48 241.95 595.74C238.25 597.85 234.28 599.46 230.16 600.53C229.97 600.58 229.51 600.7 228.76 600.9C227.51 601.1 226.73 601.22 226.42 601.27C223.11 601.81 219.76 602.09 216.41 602.11C216.05 602.11 218.46 602.09 217.71 602.1C215.64 602.11 213.56 601.97 211.51 601.69C210.99 601.62 209.69 601.44 207.61 601.16L197.66 599.52L188.27 597.36L26.31 559L64.83 437.04L81.4 384.84C81.65 384.18 81.8 383.77 81.86 383.61C83.59 378.99 85.9 374.61 88.73 370.57C88.73 370.57 88.73 370.57 88.73 370.57C90.63 367.99 91.62 366.63 91.71 366.51C92.75 365.12 94.16 363.67 95.6 362.24C96.33 361.51 99.37 358.96 100.13 358.26C100.13 358.26 100.13 358.26 100.13 358.26C102.64 356.27 105.3 354.48 108.08 352.89C108.3 352.77 108.84 352.46 109.7 351.97C111.3 351.06 112.29 350.49 112.69 350.26C116.83 347.91 121.32 346.23 125.99 345.3C126.29 345.25 127.02 345.1 128.2 344.87C130.7 344.61 132.27 344.44 132.9 344.38C136.98 343.96 141.08 343.84 145.18 344.04C145.89 344.07 147.66 344.16 150.5 344.29L164.5 346.62L178.4 350.3L189.19 353.6C184.14 353.68 180.99 353.73 179.73 353.75C176.48 353.81 173.24 354.23 170.08 355.01C169.3 355.2 171.03 354.77 170.08 355.01C167.49 355.65 164.96 356.55 162.54 357.71C161.41 358.25 162.99 357.5 162.19 357.88C158.66 359.56 155.27 361.51 152.04 363.71C151.46 364.1 153.81 362.5 153.04 363.02C150.46 364.78 148.05 366.79 145.85 369.01C144.84 370.02 145.81 369.04 144.98 369.88C142.23 372.66 139.87 375.78 137.95 379.19C137.68 379.68 139.09 377.16 138.66 377.94C137.27 380.4 136.14 383.01 135.29 385.7C135.04 386.52 134.39 388.57 133.36 391.85L92.27 522L150.61 535.52L209.94 549.54L227.57 554.1C230.23 554.45 231.9 554.68 232.56 554.76C236.7 555.31 240.88 555.45 245.05 555.17C246.36 555.08 243.79 555.25 245.05 555.17C249.38 554.88 253.62 553.77 257.55 551.92C259 551.23 258.37 551.53 260.06 550.74C263.21 549.25 266.17 547.38 268.87 545.17C270.31 543.99 269.89 544.34 271.17 543.3C274.43 540.63 277.26 537.48 279.57 533.96C280.45 532.62 282.66 529.25 286.19 523.85L279.64 547.17Z" id="a2M5HnIAol"></path>
    <path d="M262.83 306.51C262.4 306 262.12 305.68 262.01 305.55C261.01 304.38 260.15 303.09 259.46 301.71C259.31 301.4 259.92 302.62 259.77 302.33C259.05 300.89 258.49 299.37 258.1 297.81C258.01 297.44 257.77 296.49 257.39 294.98L256.75 291.22C256.65 290.16 256.58 289.49 256.56 289.22C256.42 287.8 256.43 286.36 256.57 284.93C256.59 284.7 256.65 284.12 256.75 283.19C256.98 281.66 257.13 280.7 257.19 280.32C257.33 279.47 257.55 278.64 257.86 277.84C258.02 277.41 257.83 277.91 257.94 277.62C258.44 276.33 259.08 275.1 259.84 273.95C259.93 273.82 260.15 273.49 260.5 272.96L262.83 270.24L265.16 267.26L323.73 204.51L382.37 269.15L384.8 272.52L387.39 276.53C387.84 277.46 388.13 278.05 388.24 278.28C388.89 279.62 389.4 281.04 389.77 282.49C389.89 282.98 389.66 282.08 389.78 282.53C390.18 284.15 390.39 285.81 390.39 287.48C390.39 287.86 390.39 286.98 390.39 287.48C390.39 288.74 390.29 290 390.1 291.24C390.04 291.68 389.87 292.79 389.61 294.55C389.24 295.89 389.01 296.73 388.92 297.07C388.43 298.84 387.8 300.57 387.03 302.25C386.79 302.75 387.25 301.76 387.02 302.26C386.25 303.93 385.27 305.48 384.08 306.88C383.85 307.16 383.28 307.83 382.37 308.92L323.35 370.85L262.83 306.51Z" id="gAvzzwTy5"></path>
    <path d="M209.2 274.18L200.96 264.57L194.43 255.24C193 252.64 192.11 251.02 191.75 250.37C190.18 247.52 188.84 244.54 187.75 241.47C187.52 240.81 188.3 243.01 188.02 242.24C187.07 239.56 186.4 236.79 186.03 233.97C185.98 233.59 185.86 232.64 185.66 231.12L185.66 221.42C185.66 219.27 185.66 217.93 185.66 217.39C185.66 213.13 186.22 208.88 187.33 204.77C187.38 204.59 187.51 204.12 187.71 203.38C188.15 202.19 188.43 201.45 188.54 201.15C189.71 198.01 191.13 194.97 192.77 192.04C192.95 191.73 191.77 193.83 192.13 193.18C193.15 191.37 194.3 189.64 195.56 187.99C195.88 187.57 196.68 186.53 197.95 184.87L204.3 177.03L210.83 169.94L324.33 48.21L411.24 142.05L448.38 182.29C448.83 182.83 449.11 183.17 449.22 183.3C452.38 187.09 455.05 191.27 457.15 195.73C457.15 195.73 457.15 195.73 457.15 195.73C458.46 198.65 459.14 200.19 459.2 200.33C459.9 201.91 460.46 203.85 460.99 205.81C461.26 206.81 461.98 210.71 462.21 211.72C462.21 211.72 462.21 211.72 462.21 211.72C462.69 214.88 462.93 218.08 462.93 221.29C462.93 221.53 462.93 222.16 462.93 223.15C462.93 224.99 462.93 226.14 462.93 226.6C462.93 231.36 462.17 236.09 460.66 240.61C460.57 240.89 460.33 241.6 459.95 242.74C458.94 245.05 458.3 246.49 458.05 247.06C456.39 250.82 454.46 254.44 452.26 257.91C451.88 258.51 450.93 260.01 449.41 262.41L440.45 273.41L430.38 283.67L422.17 291.42C424.6 286.99 426.11 284.22 426.72 283.11C428.28 280.26 429.52 277.24 430.4 274.11C430.62 273.34 430.14 275.06 430.4 274.11C431.13 271.54 431.6 268.9 431.79 266.23C431.88 264.98 431.75 266.71 431.82 265.83C432.1 261.94 432.09 258.02 431.78 254.13C431.72 253.43 431.95 256.27 431.87 255.34C431.62 252.22 431.08 249.13 430.24 246.12C429.85 244.75 430.22 246.08 429.9 244.94C428.86 241.18 427.31 237.57 425.3 234.23C425.01 233.74 426.5 236.22 426.04 235.46C424.58 233.03 422.88 230.76 420.95 228.69C420.37 228.06 418.91 226.49 416.57 223.97L323.83 123.84L283.2 167.83L241.65 212.44L228.96 225.5C227.33 227.64 226.32 228.98 225.91 229.52C223.39 232.84 221.2 236.41 219.38 240.16C218.81 241.35 219.93 239.03 219.38 240.16C217.49 244.07 216.35 248.3 216.01 252.64C215.89 254.24 215.94 253.54 215.8 255.4C215.53 258.88 215.69 262.37 216.27 265.81C216.58 267.65 216.49 267.11 216.77 268.74C217.47 272.89 218.8 276.91 220.71 280.65C221.45 282.09 223.28 285.68 226.22 291.42L209.2 274.18Z" id="a2u6L9sw6v"></path>
    <path d="M367.5 548.17L371.77 560.09L376.64 570.38C378.19 572.91 379.16 574.49 379.55 575.12C381.25 577.9 383.18 580.54 385.31 583.01C385.76 583.53 384.24 581.77 384.77 582.38C386.63 584.54 388.71 586.49 390.97 588.21C391.28 588.44 392.04 589.02 393.26 589.95L401.69 594.75C403.56 595.81 404.72 596.48 405.19 596.74C408.89 598.85 412.86 600.46 416.98 601.53C417.17 601.58 417.64 601.7 418.38 601.9C419.63 602.1 420.41 602.22 420.72 602.27C424.03 602.81 427.38 603.09 430.73 603.11C431.1 603.11 428.68 603.09 429.43 603.1C431.5 603.11 433.58 602.97 435.63 602.69C436.15 602.62 437.45 602.44 439.53 602.16L449.48 600.52L458.87 598.36L620.84 560L582.32 438.04L565.74 385.84C565.49 385.18 565.34 384.77 565.28 384.61C563.55 379.99 561.24 375.61 558.41 371.57C558.41 371.57 558.41 371.57 558.41 371.57C556.51 368.99 555.52 367.63 555.43 367.51C554.4 366.12 552.99 364.67 551.55 363.24C550.82 362.51 547.77 359.96 547.02 359.26C547.02 359.26 547.02 359.26 547.02 359.26C544.5 357.27 541.85 355.48 539.06 353.89C538.85 353.77 538.31 353.46 537.44 352.97C535.85 352.06 534.85 351.49 534.45 351.26C530.31 348.91 525.82 347.23 521.15 346.3C520.85 346.25 520.12 346.1 518.94 345.87C516.44 345.61 514.87 345.44 514.25 345.38C510.17 344.96 506.06 344.84 501.96 345.04C501.25 345.07 499.48 345.16 496.64 345.29L482.64 347.62L468.74 351.3L457.95 354.6C463 354.68 466.15 354.73 467.41 354.75C470.67 354.81 473.9 355.23 477.06 356.01C477.84 356.2 476.11 355.77 477.06 356.01C479.66 356.65 482.18 357.55 484.6 358.71C485.73 359.25 484.16 358.5 484.95 358.88C488.48 360.56 491.87 362.51 495.1 364.71C495.68 365.1 493.33 363.5 494.1 364.02C496.68 365.78 499.09 367.79 501.3 370.01C502.3 371.02 501.33 370.04 502.16 370.88C504.91 373.66 507.27 376.78 509.19 380.19C509.46 380.68 508.05 378.16 508.48 378.94C509.87 381.4 511 384.01 511.85 386.7C512.1 387.52 512.75 389.57 513.78 392.85L554.87 523L496.53 536.52L437.2 550.54L419.58 555.1C416.91 555.45 415.24 555.68 414.58 555.76C410.44 556.31 406.26 556.45 402.1 556.17C400.78 556.08 403.35 556.25 402.1 556.17C397.76 555.88 393.52 554.77 389.59 552.92C388.14 552.23 388.77 552.53 387.08 551.74C383.93 550.25 380.97 548.38 378.27 546.17C376.83 544.99 377.25 545.34 375.97 544.3C372.71 541.63 369.88 538.48 367.57 534.96C366.69 533.62 364.48 530.25 360.95 524.85L367.5 548.17Z" id="a1ISH92ulO"></path>
    <path d="M188.1 395.29C188.32 394.66 188.46 394.26 188.52 394.1C189.03 392.65 189.71 391.26 190.56 389.97C190.75 389.68 190 390.82 190.18 390.55C191.07 389.2 192.09 387.96 193.25 386.84C193.53 386.57 194.23 385.89 195.35 384.81L198.27 382.36C199.15 381.74 199.69 381.35 199.91 381.2C201.08 380.37 202.32 379.65 203.63 379.06C203.84 378.96 204.37 378.72 205.22 378.34C206.67 377.78 207.57 377.43 207.93 377.29C208.73 376.98 209.56 376.75 210.41 376.62C210.86 376.54 210.34 376.63 210.64 376.58C212.01 376.36 213.39 376.3 214.77 376.38C214.93 376.39 215.33 376.42 215.96 376.46L219.48 377.11L223.23 377.64L306.88 396.85L280.34 480L278.65 483.79L276.48 488.05C275.9 488.9 275.53 489.44 275.39 489.65C274.55 490.89 273.59 492.04 272.51 493.08C272.15 493.44 272.81 492.79 272.48 493.11C271.28 494.28 269.95 495.29 268.5 496.12C268.18 496.31 268.94 495.87 268.5 496.12C267.41 496.75 266.28 497.3 265.11 497.76C264.69 497.93 263.66 498.34 261.99 499C260.65 499.35 259.81 499.57 259.47 499.66C257.69 500.13 255.88 500.45 254.04 500.62C253.49 500.67 254.58 500.57 254.03 500.62C252.2 500.79 250.36 500.72 248.55 500.4C248.21 500.33 247.33 500.18 245.94 499.93L162.76 479.91L188.1 395.29Z" id="cueq9jF1L"></path>
    <path d="M459.33 395.29C459.11 394.66 458.97 394.26 458.91 394.1C458.4 392.65 457.72 391.26 456.87 389.97C456.68 389.68 457.43 390.82 457.25 390.55C456.36 389.2 455.33 387.96 454.18 386.84C453.9 386.57 453.2 385.89 452.08 384.81L449.16 382.36C448.28 381.74 447.74 381.35 447.52 381.2C446.35 380.37 445.11 379.65 443.8 379.06C443.59 378.96 443.06 378.72 442.21 378.34C440.76 377.78 439.86 377.43 439.5 377.29C438.7 376.98 437.87 376.75 437.02 376.62C436.56 376.54 437.09 376.63 436.79 376.58C435.42 376.36 434.04 376.3 432.65 376.38C432.5 376.39 432.1 376.42 431.47 376.46L427.95 377.11L424.2 377.64L340.55 396.85L367.08 480L368.78 483.79L370.95 488.05C371.53 488.9 371.89 489.44 372.04 489.65C372.88 490.89 373.84 492.04 374.91 493.08C375.28 493.44 374.62 492.79 374.94 493.11C376.14 494.28 377.48 495.29 378.93 496.12C379.25 496.31 378.49 495.87 378.93 496.12C380.01 496.75 381.15 497.3 382.32 497.76C382.73 497.93 383.77 498.34 385.43 499C386.78 499.35 387.62 499.57 387.96 499.66C389.74 500.13 391.55 500.45 393.38 500.62C393.94 500.67 392.85 500.57 393.4 500.62C395.23 500.79 397.07 500.72 398.87 500.4C399.22 500.33 400.1 500.18 401.49 499.93L484.66 479.91L459.33 395.29Z" id="h70L0cNvf6"></path>
  </defs>
  <g>
    <g>
      <g>
        <use xlink:href="#a2M5HnIAol" opacity="1" fill="#93a36c" fill-opacity="1"></use>
        <g>
          <use xlink:href="#a2M5HnIAol" opacity="1" fill-opacity="0" stroke="#000000" stroke-width="0" stroke-opacity="1"></use>
        </g>
      </g>
      <g>
        <use xlink:href="#gAvzzwTy5" opacity="1" fill="#6eb0de" fill-opacity="1"></use>
        <g>
          <use xlink:href="#gAvzzwTy5" opacity="1" fill-opacity="0" stroke="#000000" stroke-width="0" stroke-opacity="1"></use>
        </g>
      </g>
      <g>
        <use xlink:href="#a2u6L9sw6v" opacity="1" fill="#93a36c" fill-opacity="1"></use>
        <g>
          <use xlink:href="#a2u6L9sw6v" opacity="1" fill-opacity="0" stroke="#000000" stroke-width="0" stroke-opacity="1"></use>
        </g>
      </g>
      <g>
        <use xlink:href="#a1ISH92ulO" opacity="1" fill="#93a36c" fill-opacity="1"></use>
        <g>
          <use xlink:href="#a1ISH92ulO" opacity="1" fill-opacity="0" stroke="#000000" stroke-width="0" stroke-opacity="1"></use>
        </g>
      </g>
      <g>
        <use xlink:href="#cueq9jF1L" opacity="1" fill="#6eb0de" fill-opacity="1"></use>
        <g>
          <use xlink:href="#cueq9jF1L" opacity="1" fill-opacity="0" stroke="#000000" stroke-width="0" stroke-opacity="1"></use>
        </g>
      </g>
      <g>
        <use xlink:href="#h70L0cNvf6" opacity="1" fill="#6eb0de" fill-opacity="1"></use>
        <g>
          <use xlink:href="#h70L0cNvf6" opacity="1" fill-opacity="0" stroke="#000000" stroke-width="0" stroke-opacity="1"></use>
        </g>
      </g>
    </g>
  </g>
</svg>